#!OML:ASF E:\motion texture\Top Level 1\Subject 1\Session 1\male.ASF
:FULLY-SPECIFIED
:DEGREES
375
root 6.47374 17.7324 5.33891 369.52 -87.5804 -363.053
lowerback -2.78802 -1.2761 -1.58063
upperback -0.729953 -1.68357 1.58201
thorax 0.90687 -0.850098 2.44869
lowerneck -15.2223 6.07656 0.847721
upperneck 32.4414 7.50775 0.998082
head 13.457 3.21683 1.36029
rclavicle -5.29264e-015 2.0276e-014
rhumerus -38.2649 -16.4977 -71.568
rradius 30.4382
rwrist 5.62483
rhand -10.4216 -29.7613
rfingers 7.12502
rthumb 15.5776 -59.154
lclavicle -5.29264e-015 2.0276e-014
lhumerus -82.968 55.6243 12.7033
lradius 11.4823
lwrist -54.7042
lhand -13.2716 39.424
lfingers 7.12502
lthumb 12.8314 69.0096
rfemur -34.7884 -2.32146 17.1529
rtibia 26.0505
rfoot -3.69516 -14.9051
rtoes 4.55645
lfemur 0.504606 -4.10966 -22.4479
ltibia 13.1386
lfoot -13.9644 1.98453
ltoes -4.71511
376
root 6.33231 17.7219 5.32991 369.277 -87.6454 -362.656
lowerback -2.84897 -1.26531 -1.59732
upperback -0.757393 -1.66845 1.58848
thorax 0.912676 -0.842538 2.46429
lowerneck -15.2161 6.075 0.852652
upperneck 32.4001 7.49339 1.03127
head 13.4364 3.2177 1.36893
rclavicle -1.1455e-014 1.59028e-015
rhumerus -38.155 -16.3281 -71.6783
rradius 30.8387
rwrist 5.4306
rhand -10.462 -29.6748
rfingers 7.12502
rthumb 15.5388 -59.0704
lclavicle -1.1455e-014 1.59028e-015
lhumerus -89.2142 55.1197 5.31071
lradius 11.2759
lwrist -58.0312
lhand -13.4013 39.7502
lfingers 7.12502
lthumb 12.7063 69.3436
rfemur -34.8462 -1.95005 17.0234
rtibia 24.8116
rfoot -3.64264 -14.8912
rtoes 4.3046
lfemur 0.780662 -4.07709 -22.4402
ltibia 13.278
lfoot -14.1697 2.01789
ltoes -5.3571
377
root 6.18984 17.7119 5.32025 369.202 -87.7078 -362.431
lowerback -2.91024 -1.25151 -1.60537
upperback -0.785322 -1.64962 1.5963
thorax 0.917737 -0.833112 2.47658
lowerneck -15.2117 6.07171 0.85643
upperneck 32.3618 7.47672 1.065
head 13.4174 3.21737 1.37774
rclavicle 4.79568e-015 -4.77083e-015
rhumerus -38.0512 -16.1674 -71.7765
rradius 31.2187
rwrist 5.25151
rhand -10.5009 -29.5895
rfingers 7.12502
rthumb 15.5012 -58.9881
lclavicle 4.79568e-015 -4.77083e-015
lhumerus -94.6046 54.2101 -1.17306
lradius 11.1398
lwrist -60.9544
lhand -13.5165 40.0506
lfingers 7.12502
lthumb 12.5953 69.6509
rfemur -34.8892 -1.57815 16.909
rtibia 23.6655
rfoot -3.56167 -14.8706
rtoes 4.08668
lfemur 1.04549 -4.05092 -22.4198
ltibia 13.4484
lfoot -14.3557 2.0409
ltoes -6.033
378
root 6.04642 17.7024 5.30992 369.281 -87.766 -362.363
lowerback -2.97222 -1.23519 -1.60575
upperback -0.815234 -1.62769 1.60559
thorax 0.920807 -0.822109 2.48624
lowerneck -15.2083 6.0678 0.859214
upperneck 32.3283 7.45934 1.09905
head 13.4007 3.21646 1.38688
rclavicle 1.77415e-014 -9.14409e-015
rhumerus -37.9535 -16.018 -71.8606
rradius 31.5738
rwrist 5.09022
rhand -10.5402 -29.5043
rfingers 7.12502
rthumb 15.4634 -58.9059
lclavicle 1.77415e-014 -9.14409e-015
lhumerus -99.0532 53.0455 -6.6411
lradius 11.06
lwrist -63.4349
lhand -13.6186 40.3278
lfingers 7.12502
lthumb 12.4969 69.9341
rfemur -34.9229 -1.20883 16.81
rtibia 22.6198
rfoot -3.45751 -14.8446
rtoes 3.90872
lfemur 1.29398 -4.03074 -22.3871
ltibia 13.6533
lfoot -14.5201 2.04968
ltoes -6.73895
379
root 5.90189 17.6934 5.29891 369.531 -87.8199 -362.473
lowerback -3.03381 -1.2159 -1.5986
upperback -0.845351 -1.6021 1.61661
thorax 0.923084 -0.809271 2.49363
lowerneck -15.2044 6.06236 0.86144
upperneck 32.2977 7.4403 1.13187
head 13.3852 3.21448 1.39542
rclavicle 1.4064e-014 -3.97569e-015
rhumerus -37.8619 -15.8819 -71.9294
rradius 31.9024
rwrist 4.94547
rhand -10.5775 -29.4218
rfingers 7.12502
rthumb 15.4274 -58.8261
lclavicle 1.4064e-014 -3.97569e-015
lhumerus -102.575 51.7651 -11.0876
lradius 11.0245
lwrist -65.4433
lhand -13.7079 40.5749
lfingers 7.12502
lthumb 12.4107 70.1865
rfemur -34.944 -0.844228 16.7283
rtibia 21.6768
rfoot -3.33738 -14.8056
rtoes 3.77199
lfemur 1.52801 -4.0163 -22.3419
ltibia 13.8966
lfoot -14.6621 2.04312
ltoes -7.47793
380
root 5.75631 17.6852 5.2872 369.971 -87.8684 -362.779
lowerback -3.09395 -1.19325 -1.58255
upperback -0.8763 -1.57238 1.6285
thorax 0.923244 -0.794341 2.49716
lowerneck -15.199 6.0556 0.864515
upperneck 32.2711 7.41911 1.16438
head 13.3711 3.21145 1.40339
rclavicle -4.64659e-015 3.18055e-015
rhumerus -37.7779 -15.7628 -71.9821
rradius 32.2012
rwrist 4.81805
rhand -10.6141 -29.3383
rfingers 7.12502
rthumb 15.3923 -58.7453
lclavicle -4.64659e-015 3.18055e-015
lhumerus -105.255 50.4776 -14.5837
lradius 11.0228
lwrist -66.9721
lhand -13.7873 40.7884
lfingers 7.12502
lthumb 12.3342 70.4046
rfemur -34.9531 -0.486301 16.6654
rtibia 20.8376
rfoot -3.20387 -14.7488
rtoes 3.67671
lfemur 1.74563 -4.00682 -22.2829
ltibia 14.1809
lfoot -14.7784 2.01812
ltoes -8.25016
381
root 5.6097 17.6777 5.2748 370.591 -87.91 -363.274
lowerback -3.15041 -1.16796 -1.55895
upperback -0.908458 -1.53949 1.64208
thorax 0.91978 -0.777787 2.49845
lowerneck -15.1933 6.04814 0.86803
upperneck 32.2499 7.39712 1.19566
head 13.3594 3.20775 1.41081
rclavicle 1.37907e-014 -7.55382e-015
rhumerus -37.7013 -15.6592 -72.0181
rradius 32.4685
rwrist 4.70703
rhand -10.6499 -29.2547
rfingers 7.12502
rthumb 15.3577 -58.6644
lclavicle 1.37907e-014 -7.55382e-015
lhumerus -107.206 49.2616 -17.2319
lradius 11.046
lwrist -68.0306
lhand -13.8564 40.9764
lfingers 7.12502
lthumb 12.2675 70.5965
rfemur -34.9503 -0.137513 16.6217
rtibia 20.1029
rfoot -3.0572 -14.6733
rtoes 3.62856
lfemur 1.94463 -4.00179 -22.2105
ltibia 14.5099
lfoot -14.8676 1.97176
ltoes -9.04725
382
root 5.46214 17.6709 5.26171 371.431 -87.9441 -363.997
lowerback -3.205 -1.13987 -1.52609
upperback -0.94074 -1.50327 1.65754
thorax 0.914778 -0.759568 2.49667
lowerneck -15.1872 6.04015 0.871744
upperneck 32.2331 7.37458 1.22598
head 13.3496 3.20354 1.41782
rclavicle -1.66234e-014 1.03368e-014
rhumerus -37.6295 -15.5737 -72.0371
rradius 32.7009
rwrist 4.6139
rhand -10.6831 -29.1707
rfingers 7.12502
rthumb 15.3258 -58.5828
lclavicle -1.66234e-014 1.03368e-014
lhumerus -108.557 48.1665 -19.1615
lradius 11.087
lwrist -68.6556
lhand -13.9153 41.1394
lfingers 7.12502
lthumb 12.2108 70.763
rfemur -34.9367 0.20002 16.6005
rtibia 19.4729
rfoot -2.89771 -14.5782
rtoes 3.63264
lfemur 2.12218 -3.99982 -22.1221
ltibia 14.8861
lfoot -14.9257 1.90152
ltoes -9.86944
383
root 5.31352 17.6649 5.2479 372.497 -87.9684 -364.954
lowerback -3.25603 -1.10911 -1.48485
upperback -0.972517 -1.4639 1.67564
thorax 0.908018 -0.739771 2.49313
lowerneck -15.1803 6.03132 0.87637
upperneck 32.2215 7.35112 1.2544
head 13.3421 3.19858 1.42391
rclavicle 1.31695e-014 -9.93923e-015
rhumerus -37.5636 -15.507 -72.0377
rradius 32.8982
rwrist 4.53753
rhand -10.7164 -29.0858
rfingers 7.12502
rthumb 15.2936 -58.5004
lclavicle 1.31695e-014 -9.93923e-015
lhumerus -109.397 47.2231 -20.4562
lradius 11.1406
lwrist -68.8683
lhand -13.9646 41.2836
lfingers 7.12502
lthumb 12.1632 70.91
rfemur -34.908 0.524773 16.603
rtibia 18.9443
rfoot -2.72552 -14.4646
rtoes 3.70196
lfemur 2.27908 -4.00178 -22.0171
ltibia 15.3122
lfoot -14.95 1.8055
ltoes -10.7239
384
root 5.16393 17.6598 5.23336 373.819 -87.9804 -366.18
lowerback -3.30177 -1.07608 -1.43173
upperback -1.00461 -1.42201 1.69575
thorax 0.897637 -0.718701 2.48522
lowerneck -15.1743 6.02216 0.88264
upperneck 32.2168 7.32706 1.28145
head 13.3378 3.19311 1.42931
rclavicle -3.90115e-015 -8.34896e-015
rhumerus -37.5038 -15.4602 -72.021
rradius 33.0579
rwrist 4.47912
rhand -10.7504 -29.0002
rfingers 7.12502
rthumb 15.2609 -58.4172
lclavicle -3.90115e-015 -8.34896e-015
lhumerus -109.817 46.4425 -21.2142
lradius 11.2029
lwrist -68.7089
lhand -14.0103 41.4225
lfingers 7.12502
lthumb 12.1192 71.0515
rfemur -34.8643 0.835005 16.632
rtibia 18.5138
rfoot -2.54035 -14.3298
rtoes 3.83734
lfemur 2.41241 -4.00781 -21.8924
ltibia 15.7895
lfoot -14.9352 1.67893
ltoes -11.5889
